<?xml version="1.0" encoding="utf-8"?>
<!-- Generator: Adobe Illustrator 24.1.2, SVG Export Plug-In . SVG Version: 6.00 Build 0)  -->
<svg version="1.1" id="Layer_1" xmlns="http://www.w3.org/2000/svg" xmlns:xlink="http://www.w3.org/1999/xlink" x="0px" y="0px"
	 viewBox="0 0 100 125" style="enable-background:new 0 0 100 125;" xml:space="preserve">
<style type="text/css">
	.st0{fill:#F29F05;}
</style>
<g>
	<path class="st0" d="M50.7,57.1c5.2,0,9.4-4.2,9.4-9.4s-4.2-9.4-9.4-9.4s-9.4,4.2-9.4,9.4l0,0C41.3,52.9,45.5,57.1,50.7,57.1z
		 M50.7,44.3c1.9,0,3.4,1.5,3.4,3.4s-1.5,3.4-3.4,3.4s-3.4-1.5-3.4-3.4S48.8,44.3,50.7,44.3L50.7,44.3z"/>
	<path class="st0" d="M83.8,19l-53.6-6.1c-5.2-0.6-9.9,3.1-10.5,8.3l-0.8,7h-0.2c-6.1,0-11,4.9-11,11v36.9c0,6.1,4.9,11,11,11h51
		c5.6,0,10.3-4.2,10.9-9.8c3.8-1,6.6-4.2,7-8.1l4.5-39.7C92.7,24.3,89,19.6,83.8,19z M18.8,34.3h50.9c2.8,0,5,2.2,5,5v14.3
		L51.1,67.3L33.8,52.2c-1.1-1-2.6-1-3.8-0.2L13.8,63.9V39.3C13.8,36.5,16,34.3,18.8,34.3z M69.7,81.1H18.8c-2.8,0-5-2.2-5-5v-4.8
		l17.9-13l17.2,15c1,0.8,2.4,1,3.5,0.3l22.3-13.1v15.6C74.7,78.9,72.5,81.1,69.7,81.1z M86.2,28.8l-4.5,39.7c-0.1,0.8-0.4,1.5-1,2.1
		V39.3c0-6.1-4.9-11-11-11H25l0.7-6.3c0.2-1.9,1.9-3.3,3.8-3.1L83.1,25C85,25.2,86.4,26.9,86.2,28.8z"/>
</g>
</svg>
