<?xml version="1.0" encoding="utf-8"?>
<!-- Generator: Adobe Illustrator 24.1.2, SVG Export Plug-In . SVG Version: 6.00 Build 0)  -->
<svg version="1.1" id="Layer_1" xmlns="http://www.w3.org/2000/svg" xmlns:xlink="http://www.w3.org/1999/xlink" x="0px" y="0px"
	 viewBox="0 0 100 125" style="enable-background:new 0 0 100 125;" xml:space="preserve">
<style type="text/css">
	.st0{fill:#F29F05;}
</style>
<g>
	<path class="st0" d="M50.4,57.4c5.2,0,9.4-4.2,9.4-9.4s-4.2-9.4-9.4-9.4S41,42.8,41,48S45.2,57.4,50.4,57.4L50.4,57.4z"/>
	<path class="st0" d="M89.9,20.1l-66.4-7.6c-1.6-0.2-3.1,1-3.3,2.6l-1.6,13.5h-8.2c-1.7,0-3,1.3-3,3v52.9c0,1.7,1.3,3,3,3h66.9
		c1.7,0,3-1.3,3-3v-6.2l2.9,0.3h0.3c1.5,0,2.8-1.2,3-2.7l6-52.5C92.7,21.8,91.5,20.3,89.9,20.1z M74.3,53.9L50.8,67.7L33.4,52.5
		c-1-0.9-2.6-1-3.7-0.2L13.4,64.2V34.6h60.9V53.9z M80.9,72.3h-0.6V31.6c0-1.7-1.3-3-3-3H24.6l1.1-9.8l60.5,6.9L80.9,72.3z"/>
</g>
</svg>
