<?xml version="1.0" encoding="utf-8"?>
<!-- Generator: Adobe Illustrator 24.1.2, SVG Export Plug-In . SVG Version: 6.00 Build 0)  -->
<svg version="1.1"
	 id="Layer_1" xmlns:cc="http://creativecommons.org/ns#" xmlns:dc="http://purl.org/dc/elements/1.1/" xmlns:rdf="http://www.w3.org/1999/02/22-rdf-syntax-ns#"
	 xmlns="http://www.w3.org/2000/svg" xmlns:xlink="http://www.w3.org/1999/xlink" x="0px" y="0px" viewBox="0 0 24 24"
	 style="enable-background:new 0 0 24 24;" xml:space="preserve">
<style type="text/css">
	.st0{fill:none;}
	.st1{fill:#F29F05;}
</style>
<rect x="-4" y="-8" class="st0" width="32" height="32"/>
<path image-rendering="auto" color-rendering="auto" shape-rendering="auto" class="st1" d="M12.2,1.6C12.2,1.6,12.2,1.6,12.2,1.6
	C12.2,1.6,12.2,1.6,12.2,1.6C12.2,1.6,12.2,1.6,12.2,1.6C12.2,1.6,12.2,1.6,12.2,1.6c-0.3,0-0.5,0.1-0.7,0.3C11.4,2,6.4,6.5,4.4,8.4
	L2,10.5c-0.3,0.3-0.4,0.8-0.1,1.1s0.8,0.4,1.1,0.1l0.3-0.2v7.1c0,0.6,0,1.1,0,1.5c0,0.4,0.2,0.9,0.5,1.2c0.3,0.3,0.8,0.5,1.2,0.5
	c0.4,0,0.9,0,1.5,0h0.8c0.6,0,1.1,0,1.5,0c0.4,0,0.9-0.2,1.2-0.5c0.3-0.3,0.5-0.8,0.5-1.2c0-0.4,0-0.9,0-1.5V17c0-0.6,0-1,0-1.3
	c0-0.1,0-0.2,0-0.2c0,0,0.1,0,0.2,0c0.3,0,0.7,0,1.3,0c0.6,0,1,0,1.3,0c0.1,0,0.2,0,0.2,0c0,0,0,0.1,0,0.2c0,0.3,0,0.7,0,1.3v1.6
	c0,0.6,0,1.1,0,1.5c0,0.4,0.2,0.9,0.5,1.2c0.3,0.3,0.8,0.5,1.2,0.5c0.4,0,0.9,0,1.5,0h0.8c0.6,0,1.1,0,1.5,0c0.4,0,0.9-0.2,1.2-0.5
	c0.3-0.3,0.5-0.8,0.5-1.2c0-0.4,0-0.9,0-1.5v-7.1l0.3,0.2c0.3,0.3,0.8,0.3,1.1-0.1s0.3-0.8-0.1-1.1l0,0l-2.4-2.2
	C18,6.6,13,2,12.9,1.9c0,0,0,0,0,0C12.7,1.7,12.5,1.6,12.2,1.6L12.2,1.6z M12.2,3.5c0.3,0.3,1.9,1.7,3.3,3L19,9.6
	c0.3,0.3,0.5,0.7,0.5,1.2v7.8c0,0.6,0,1,0,1.3c0,0.1,0,0.2,0,0.2c0,0-0.1,0-0.2,0c-0.3,0-0.7,0-1.3,0h-0.8c-0.6,0-1,0-1.3,0
	c-0.1,0-0.2,0-0.2,0c0,0,0-0.1,0-0.2c0-0.3,0-0.7,0-1.3V17c0-0.6,0-1.1,0-1.5c0-0.4-0.2-0.9-0.5-1.2c-0.3-0.3-0.8-0.5-1.2-0.5
	c-0.4,0-0.9,0-1.5,0s-1.1,0-1.5,0c-0.4,0-0.9,0.2-1.2,0.5S9.1,15.1,9,15.5c0,0.4,0,0.9,0,1.5v1.6c0,0.6,0,1,0,1.3c0,0.1,0,0.2,0,0.2
	c0,0-0.1,0-0.2,0c-0.3,0-0.7,0-1.3,0H6.5c-0.6,0-1,0-1.3,0c-0.1,0-0.2,0-0.2,0c0,0,0-0.1,0-0.2c0-0.3,0-0.7,0-1.3v-7.8
	c0-0.5,0.2-0.9,0.5-1.2c1-0.9,1.9-1.8,3.5-3.1L12.2,3.5L12.2,3.5z"/>
</svg>
