<?xml version="1.0" encoding="utf-8"?>
<!-- Generator: Adobe Illustrator 24.2.1, SVG Export Plug-In . SVG Version: 6.00 Build 0)  -->
<svg version="1.1"
	 id="Layer_1" xmlns:cc="http://creativecommons.org/ns#" xmlns:dc="http://purl.org/dc/elements/1.1/" xmlns:inkscape="http://www.inkscape.org/namespaces/inkscape" xmlns:rdf="http://www.w3.org/1999/02/22-rdf-syntax-ns#" xmlns:sodipodi="http://sodipodi.sourceforge.net/DTD/sodipodi-0.dtd" xmlns:svg="http://www.w3.org/2000/svg"
	 xmlns="http://www.w3.org/2000/svg" xmlns:xlink="http://www.w3.org/1999/xlink" x="0px" y="0px" viewBox="0 0 100 125"
	 style="enable-background:new 0 0 100 125;" xml:space="preserve">
<style type="text/css">
	.st0{fill:#FFA544;}
</style>
<g transform="translate(0,-952.36218)">
	<path class="st0" d="M48.4,955.5c-5.1,1.3-7.3,9.4-4.8,18.1c2.5,8.7,8.6,14.6,13.8,13.4c5.1-1.3,7.3-9.4,4.8-18
		C59.7,961.8,54.7,954.4,48.4,955.5L48.4,955.5z M16.5,972.7c-3.7,3.8-1.6,12.1,4.7,18.6c6.3,6.5,14.4,8.6,18.1,4.8
		c3.7-3.8,1.6-12.1-4.7-18.6C30.1,973.6,21.6,967.6,16.5,972.7z M78.1,971.9c-4.9,1.5-7.3,9.4-5.2,17.7c2,8.3,7.6,13.9,12.5,12.5
		c4.9-1.5,7.3-9.4,5.3-17.7C88.6,977.3,84.6,970.7,78.1,971.9z M50.9,1001.3c-7,4-14.1,34.4-9.1,43.1c2.7,4.6,9.4,6.9,16.4,2.9
		c3.5-2,12.8-11.2,15.7-12.9c2.9-1.7,9.5-0.9,13.6-3.2c4.1-2.3,6-9.7,3-14.9C84.6,1008.3,59.5,996.5,50.9,1001.3L50.9,1001.3z
		 M8.8,1006.7c-2.5,4.4,1.4,11.4,8.7,15.6c7.4,4.2,15.4,4.1,17.9-0.3c2.5-4.4-1.4-11.4-8.7-15.6C21.6,1003.7,12.2,1001.2,8.8,1006.7
		z"/>
</g>
</svg>
