<?xml version="1.0" encoding="utf-8"?>
<!-- Generator: Adobe Illustrator 24.1.2, SVG Export Plug-In . SVG Version: 6.00 Build 0)  -->
<svg version="1.1" id="Layer_1" xmlns="http://www.w3.org/2000/svg" xmlns:xlink="http://www.w3.org/1999/xlink" x="0px" y="0px"
	 viewBox="0 0 24 24" style="enable-background:new 0 0 24 24;" xml:space="preserve">
<style type="text/css">
	.st0{fill:#F29F05;}
</style>
<path class="st0" d="M22.9,21.1l-3.7-4.5c-0.2-0.2-0.5-0.4-0.8-0.4h-0.9c-0.5,0-1,0.4-1,1c0,0.5,0.4,1,1,1H18l2.1,2.6H3.9l2-2.6h0.4
	c0.5,0,1-0.4,1-1c0-0.5-0.4-1-1-1H5.4c-0.3,0-0.6,0.1-0.8,0.4l-3.6,4.6c-0.2,0.3-0.3,0.7-0.1,1c0.2,0.3,0.5,0.5,0.9,0.5h20.3
	c0.4,0,0.7-0.2,0.9-0.6C23.2,21.8,23.2,21.4,22.9,21.1L22.9,21.1z"/>
<path class="st0" d="M12,1.3c-2.6,0-6.7,1.7-6.7,6.4c0,3.6,5.3,10.2,5.9,10.9c0.1,0.1,0.2,0.2,0.4,0.3l0.1,0c0.2,0.1,0.5,0.1,0.8,0
	l0.1,0c0.1,0,0.3-0.1,0.4-0.3c0.6-0.7,5.9-7.3,5.9-10.9C18.7,3,14.7,1.3,12,1.3z M13.5,9.2c-0.4,0.4-0.9,0.6-1.5,0.6
	c-1.2,0-2.1-1-2.1-2.1s1-2.1,2.1-2.1s2.1,1,2.1,2.1C14.1,8.3,13.9,8.9,13.5,9.2z"/>
</svg>
