<?xml version="1.0" encoding="utf-8"?>
<!-- Generator: Adobe Illustrator 24.1.2, SVG Export Plug-In . SVG Version: 6.00 Build 0)  -->
<svg version="1.1" id="Layer_1" xmlns="http://www.w3.org/2000/svg" xmlns:xlink="http://www.w3.org/1999/xlink" x="0px" y="0px"
	 viewBox="0 0 100 125" style="enable-background:new 0 0 100 125;" xml:space="preserve">
<style type="text/css">
	.st0{fill:#F29F05;}
</style>
<path class="st0" d="M94.5,86.3L79.3,67.8c-0.8-0.9-1.9-1.5-3.1-1.5h-3.6c-2.2,0-4,1.8-4,4c0,2.2,1.8,4,4,4h1.7L83,84.8H16.4
	l8.3-10.6h1.8c2.2,0,4-1.8,4-4c0-2.2-1.8-4-4-4h-3.8c-1.2,0-2.4,0.6-3.1,1.5L5,86.4c-0.9,1.2-1.1,2.8-0.5,4.2
	c0.7,1.4,2.1,2.2,3.6,2.2h83.3c1.5,0,2.9-0.9,3.6-2.3C95.7,89.2,95.5,87.5,94.5,86.3L94.5,86.3z"/>
<path class="st0" d="M49.8,25.6c-3.4,0-6.2,2.8-6.2,6.2c0,3.4,2.8,6.2,6.2,6.2c0,0,0,0,0,0c1.7,0,3.2-0.6,4.4-1.8
	c1.2-1.2,1.8-2.7,1.8-4.4C56,28.4,53.2,25.6,49.8,25.6z"/>
<path class="st0" d="M47.8,77.7l0.4,0.2c1,0.4,2.1,0.4,3.1,0l0.4-0.2c0.6-0.2,1.1-0.6,1.5-1.1c2.5-3,24.1-29.8,24.1-44.7
	c0-19.3-16.5-26.3-27.6-26.3c-10.7,0-27.6,7.1-27.6,26.3c0,14.9,21.7,41.7,24.1,44.7C46.7,77,47.2,77.4,47.8,77.7z M40,15.8
	c4.9-2.3,9.7-2.3,9.8-2.3c0.5,0,5.3,0.1,10,2.3c4.4,2.1,9.6,6.6,9.6,16c0,9.9-15.4,30.7-18.4,34.7l-1.2,1.6l-1.2-1.6
	c-3.1-4.1-18.4-24.8-18.4-34.7C30.2,22.4,35.5,17.9,40,15.8z"/>
</svg>
