<?xml version="1.0" encoding="utf-8"?>
<!-- Generator: Adobe Illustrator 24.1.2, SVG Export Plug-In . SVG Version: 6.00 Build 0)  -->
<svg version="1.1" id="Layer_1" xmlns="http://www.w3.org/2000/svg" xmlns:xlink="http://www.w3.org/1999/xlink" x="0px" y="0px"
	 viewBox="0 0 100 125" style="enable-background:new 0 0 100 125;" xml:space="preserve">
<style type="text/css">
	.st0{fill:#F29F05;}
</style>
<path class="st0" d="M94.5,86.3L79.3,67.8c-0.8-0.9-1.9-1.5-3.1-1.5h-3.6c-2.2,0-4,1.8-4,4c0,2.2,1.8,4,4,4h1.7L83,84.8H16.4
	l8.3-10.6h1.8c2.2,0,4-1.8,4-4c0-2.2-1.8-4-4-4h-3.8c-1.2,0-2.4,0.6-3.1,1.5L5,86.4c-0.9,1.2-1.1,2.8-0.5,4.2
	c0.7,1.4,2.1,2.2,3.6,2.2h83.3c1.5,0,2.9-0.9,3.6-2.3C95.7,89.2,95.5,87.5,94.5,86.3L94.5,86.3z"/>
<path class="st0" d="M49.8,5.5c-10.7,0-27.6,7.1-27.6,26.3c0,14.9,21.7,41.7,24.1,44.7c0.4,0.5,0.9,0.9,1.5,1.1l0.4,0.2
	c1,0.4,2.1,0.4,3.1,0l0.4-0.2c0.6-0.2,1.1-0.6,1.5-1.1c2.5-3,24.1-29.8,24.1-44.7C77.4,12.5,60.9,5.5,49.8,5.5z M55.9,37.9
	c-1.6,1.6-3.8,2.5-6.1,2.5c-4.8,0-8.7-3.9-8.7-8.7c0-4.8,3.9-8.7,8.7-8.7c4.8,0,8.7,3.9,8.7,8.7C58.5,34.1,57.6,36.3,55.9,37.9z"/>
</svg>
