<?xml version="1.0" encoding="utf-8"?>
<!-- Generator: Adobe Illustrator 24.2.1, SVG Export Plug-In . SVG Version: 6.00 Build 0)  -->
<svg version="1.1" id="Layer_1" xmlns="http://www.w3.org/2000/svg" xmlns:xlink="http://www.w3.org/1999/xlink" x="0px" y="0px"
	 viewBox="0 0 32 40" style="enable-background:new 0 0 32 40;" xml:space="preserve">
<style type="text/css">
	.st0{fill:#FFA544;}
</style>
<g>
	<g>
		<path class="st0" d="M16,1C9.9,1,5,5.9,5,12c0,5.8,9.8,18.1,10.2,18.6c0.2,0.2,0.5,0.4,0.8,0.4c0.3,0,0.6-0.1,0.8-0.4
			C17.2,30.1,27,17.8,27,12C27,5.9,22.1,1,16,1z M10,10.5c0-1.4,0.7-2.5,1.3-3c1.1-0.9,3.4-0.8,4.7,0.7c1.4-1.5,3.6-1.6,4.7-0.7
			c0.6,0.5,1.3,1.5,1.3,3c0,2.5-1.8,5.3-5.4,8.2C16.5,18.9,16.2,19,16,19s-0.4-0.1-0.6-0.2C11.8,15.8,10,13.1,10,10.5z"/>
		<path class="st0" d="M20,10.6c0-1-0.5-1.4-0.5-1.4C19.4,9.1,19.2,9,18.9,9c-0.7,0-1.6,0.4-1.9,1.7c-0.1,0.4-0.5,0.8-1,0.8
			s-0.9-0.3-1-0.8C14.7,9.5,13.8,9,13.1,9c-0.3,0-0.5,0.1-0.6,0.2c0,0-0.5,0.4-0.5,1.4c0,1,0.5,3.1,4,6.1C19.5,13.7,20,11.6,20,10.6
			z"/>
	</g>
</g>
</svg>
