<?xml version="1.0" encoding="utf-8"?>
<!-- Generator: Adobe Illustrator 24.1.2, SVG Export Plug-In . SVG Version: 6.00 Build 0)  -->
<svg version="1.1" id="Layer_1" xmlns="http://www.w3.org/2000/svg" xmlns:xlink="http://www.w3.org/1999/xlink" x="0px" y="0px"
	 viewBox="0 0 85.5 128.5" style="enable-background:new 0 0 85.5 128.5;" xml:space="preserve">
<style type="text/css">
	.st0{fill:#FFFFFF;}
	.st1{fill:#F29F05;}
</style>
<polygon class="st0" points="12.3,17.4 23.2,7.7 40.6,3.8 61.6,7.7 75.7,23.8 81,38 77.7,57 73.6,67.5 61.6,77.7 53,81.2 42.7,97.6 
	33.2,80.8 22.1,76.6 14.4,69.6 7.8,59.7 3.6,42.7 3.6,31.9 "/>
<path class="st1" d="M42.7,0C19.1,0,0,19.1,0,42.7C0,61,11.7,77.3,29,83.2l10.5,17.7c0.9,1.8,3.1,2.5,4.9,1.5
	c0.7-0.3,1.2-0.9,1.5-1.5l10.5-17.7C78.8,75.6,90.8,51.3,83.2,29C77.3,11.7,61,0,42.7,0z M54,75.8c-1,0.4-2,0.6-3.1,0.9l-5.1,8.6
	l-3,5l-3-5l-5.1-8.6c-1-0.2-2.1-0.5-3.1-0.9c-18.3-6.2-28.1-26-21.9-44.3S35.7,3.4,54,9.6s28.1,26,21.9,44.3
	C72.3,64.2,64.3,72.3,54,75.8L54,75.8z"/>
<path class="st1" d="M64,27.2c-1.1-1.6-2.5-2.3-4.1-2.4c-0.4-0.2-0.8-0.2-1.3-0.1c-0.4,0.1-0.8,0.2-1.2,0.4
	c-2.4,0.6-4.9,2.2-6.7,3.5c-1.8,1.4-3.5,3-4.8,4.9c-0.8-2.4-2-4.7-3.5-6.7c-2.5-3.3-7-7.5-11.6-6.5c-2.5,0.6-3.6,2.6-3.9,4.9
	c-0.4,2.8-0.5,5.7-0.3,8.5c0.4,5.7,1.7,11.3,3.6,16.7c2.1,6.2,4.9,12.2,7.7,18.2c0.8,1.8,3.3,0.8,3.4-0.9c0.5,0.1,0.9,0.1,1.3-0.2
	c8.6-6.4,15.5-14.8,19.7-24.5C64.4,38.4,67.1,32,64,27.2z M50.7,37.2c1.3-1.8,2.7-3.6,4.1-5.3c0.3-0.3,0.6-0.7,0.9-1
	c-2.5,6.2-6.6,11.8-9.7,17.8c0-0.7,0-1.3,0-2c0-0.5-0.2-0.9-0.5-1.2C47,42.7,48.8,39.9,50.7,37.2z M34.9,29.1
	C35,29.2,35,29.2,34.9,29.1c0.4,0.5,0.7,0.9,1,1.4c0.2,0.3,0.3,0.5,0.5,0.8c-0.2,0.3-0.4,0.7-0.3,1.1c0.1,1.9,0.2,3.8,0.3,5.6
	c0-0.2-0.1-0.4-0.1-0.6c-0.5-2.4-1.1-4.9-1.3-7.4C34.9,29.8,34.9,29.5,34.9,29.1z M46.2,59.7C46.2,59.7,46.2,59.7,46.2,59.7
	C46.2,59.7,46.2,59.7,46.2,59.7C46.2,59.7,46.2,59.7,46.2,59.7z M48.5,53.1c1.8-3,3.8-5.9,6-8.7C52.7,47.4,50.7,50.3,48.5,53.1z
	 M61.6,32.7c-0.6-0.1-1.2,0-1.7,0.5c-0.6,0.6-1.3,1.2-1.9,1.8c1-2,1.8-4,2.4-6.2c0.3,0.2,0.5,0.6,0.7,1
	C61.5,30.7,61.7,31.7,61.6,32.7z M42.2,34c-0.9-1.9-2-3.8-3.2-5.6C40.4,30.1,41.5,32,42.2,34z M30.6,25.7c0.1-0.7,0.2-1.6,1-1.8
	c0.7-0.2,1.5,0,2.2,0.3c-0.6,0-1.2,0.3-1.7,0.9c-1.7,1.8-0.9,5.1-0.6,7.2c0.9,6.1,2.4,12.1,3.7,18.2c0.4,1.7,0.6,3.4,0.9,5.1
	c-2.1-5.1-3.9-10.3-5-15.8C30.3,35.2,29.9,30.4,30.6,25.7z"/>
</svg>
