<?xml version="1.0" encoding="utf-8"?>
<!-- Generator: Adobe Illustrator 24.1.2, SVG Export Plug-In . SVG Version: 6.00 Build 0)  -->
<svg version="1.1" id="Layer_1" xmlns="http://www.w3.org/2000/svg" xmlns:xlink="http://www.w3.org/1999/xlink" x="0px" y="0px"
	 viewBox="0 0 24 24" style="enable-background:new 0 0 24 24;" xml:space="preserve">
<style type="text/css">
	.st0{fill:#F29F05;}
	.st1{fill:#FFFFFF;}
</style>
<polygon class="st0" points="4.9,4.5 7.3,2.3 11.2,1.5 15.8,2.3 18.9,5.9 20.1,9 19.4,13.2 18.5,15.6 15.8,17.8 13.9,18.6 
	11.6,22.2 9.5,18.5 7.1,17.6 5.4,16 3.9,13.8 3,10.1 3,7.7 "/>
<path class="st0" d="M11.6,0.6c-5.2,0-9.4,4.2-9.4,9.4c0,4,2.6,7.7,6.4,9l2.3,3.9c0.2,0.4,0.7,0.6,1.1,0.3c0.2-0.1,0.3-0.2,0.3-0.3
	l2.3-3.9c5-1.7,7.6-7.1,5.9-12C19.3,3.2,15.7,0.6,11.6,0.6z M14.1,17.4c-0.2,0.1-0.4,0.1-0.7,0.2l-1.1,1.9l-0.7,1.1L11,19.5
	l-1.1-1.9c-0.2,0-0.5-0.1-0.7-0.2C5.1,16,3,11.6,4.3,7.6s5.8-6.2,9.8-4.8s6.2,5.8,4.8,9.8C18.2,14.8,16.4,16.6,14.1,17.4L14.1,17.4z
	"/>
<path class="st1" d="M16.4,6.6c-0.2-0.4-0.6-0.5-0.9-0.5c-0.1,0-0.2,0-0.3,0c-0.1,0-0.2,0-0.3,0.1c-0.5,0.1-1.1,0.5-1.5,0.8
	C13,7.3,12.6,7.6,12.4,8c-0.2-0.5-0.4-1-0.8-1.5C11,5.8,10,4.9,9,5.1C8.5,5.2,8.2,5.7,8.2,6.2C8.1,6.8,8,7.5,8.1,8.1
	c0.1,1.3,0.4,2.5,0.8,3.7c0.5,1.4,1.1,2.7,1.7,4c0.2,0.4,0.7,0.2,0.8-0.2c0.1,0,0.2,0,0.3,0c1.9-1.4,3.4-3.3,4.4-5.4
	C16.4,9.1,17,7.7,16.4,6.6z M13.4,8.9c0.3-0.4,0.6-0.8,0.9-1.2c0.1-0.1,0.1-0.2,0.2-0.2c-0.6,1.4-1.5,2.6-2.1,3.9c0-0.2,0-0.3,0-0.4
	c0-0.1,0-0.2-0.1-0.3C12.6,10.1,13,9.4,13.4,8.9z M9.9,7.1C9.9,7.1,9.9,7.1,9.9,7.1c0.1,0.1,0.2,0.2,0.2,0.3c0,0.1,0.1,0.1,0.1,0.2
	c0,0.1-0.1,0.2-0.1,0.2c0,0.4,0,0.8,0.1,1.2c0,0,0-0.1,0-0.1C10.1,8.4,10,7.8,9.9,7.3C9.9,7.2,9.9,7.1,9.9,7.1z M12.4,13.8
	L12.4,13.8L12.4,13.8L12.4,13.8z M12.9,12.4c0.4-0.7,0.8-1.3,1.3-1.9C13.9,11.1,13.4,11.8,12.9,12.4z M15.8,7.9
	c-0.1,0-0.3,0-0.4,0.1c-0.1,0.1-0.3,0.3-0.4,0.4c0.2-0.4,0.4-0.9,0.5-1.4c0.1,0,0.1,0.1,0.2,0.2C15.8,7.4,15.9,7.6,15.8,7.9z
	 M11.5,8.1c-0.2-0.4-0.4-0.8-0.7-1.2C11.1,7.3,11.4,7.7,11.5,8.1z M9,6.3C9,6.2,9,6,9.2,5.9c0.2,0,0.3,0,0.5,0.1
	C9.5,6,9.4,6,9.3,6.2C8.9,6.6,9.1,7.3,9.2,7.8c0.2,1.3,0.5,2.7,0.8,4c0.1,0.4,0.1,0.8,0.2,1.1c-0.5-1.1-0.9-2.3-1.1-3.5
	C8.9,8.4,8.8,7.3,9,6.3z"/>
</svg>
