<?xml version="1.0" encoding="utf-8"?>
<!-- Generator: Adobe Illustrator 24.2.1, SVG Export Plug-In . SVG Version: 6.00 Build 0)  -->
<svg version="1.1" id="Layer_1" xmlns="http://www.w3.org/2000/svg" xmlns:xlink="http://www.w3.org/1999/xlink" x="0px" y="0px"
	 viewBox="0 0 100 125" style="enable-background:new 0 0 100 125;" xml:space="preserve">
<style type="text/css">
	.st0{fill:#FFA544;}
</style>
<g>
	<path class="st0" d="M83.9,77.4c-2.4-13-13.7-22.5-26.9-22.5H43.3c-13.5,0-24.9,9.8-27.1,23.1l0,0c-1.1,6.7,4.1,12.7,10.8,12.7
		h46.2c6.8,0,12-6.2,10.8-12.9L83.9,77.4z"/>
	<path class="st0" d="M36.1,44.2c7.8,7.8,20.4,8,28.4,0.4l0.2-0.2c6.9-6.6,7.6-17.3,1.5-24.7l0,0c-8.3-10-23.7-9.8-31.7,0.4l0,0
		c-5.6,7.2-5,17.5,1.5,24L36.1,44.2z"/>
</g>
</svg>
