<?xml version="1.0" encoding="utf-8"?>
<!-- Generator: Adobe Illustrator 24.1.2, SVG Export Plug-In . SVG Version: 6.00 Build 0)  -->
<svg version="1.1" id="Layer_1" xmlns="http://www.w3.org/2000/svg" xmlns:xlink="http://www.w3.org/1999/xlink" x="0px" y="0px"
	 viewBox="0 0 24 30" style="enable-background:new 0 0 24 30;" xml:space="preserve">
<style type="text/css">
	.st0{fill:#F29F05;}
</style>
<g>
	<path class="st0" d="M12,1C5.9,1,1,5.9,1,12s4.9,11,11,11c0.3,0,0.6,0,0.9,0c1.8-0.1,3.5-0.7,5-1.7c0.3-0.2,0.5-0.3,0.7-0.5
		c2.8-2.1,4.4-5.4,4.4-8.8C23,5.9,18.1,1,12,1z M19,17.7c-0.2-2.1-1.9-3.7-4-3.7H9c-2.1,0-3.8,1.6-4,3.7c-1.3-1.6-2-3.6-2-5.7
		c0-5,4-9,9-9s9,4,9,9C21,14.1,20.3,16.1,19,17.7z"/>
	<circle class="st0" cx="12" cy="9" r="4"/>
</g>
</svg>
