<?xml version="1.0" encoding="utf-8"?>
<!-- Generator: Adobe Illustrator 24.1.2, SVG Export Plug-In . SVG Version: 6.00 Build 0)  -->
<svg version="1.1" id="Layer_1" xmlns="http://www.w3.org/2000/svg" xmlns:xlink="http://www.w3.org/1999/xlink" x="0px" y="0px"
	 viewBox="0 0 24 24" style="enable-background:new 0 0 24 24;" xml:space="preserve">
<style type="text/css">
	.st0{fill:#F29F05;}
</style>
<path class="st0" d="M19.6,6.7h-1.5V5.9c0-1.3-1-2.3-2.3-2.3H8.2c-1.3,0-2.3,1-2.3,2.3v0.8H4.4c-1.7,0-3,1.4-3,3v7.6
	c0,1.7,1.4,3,3,3h15.2c1.7,0,3-1.4,3-3V9.7C22.6,8.1,21.2,6.7,19.6,6.7z M7.4,5.9c0-0.4,0.3-0.8,0.8-0.8h7.6c0.4,0,0.8,0.3,0.8,0.8
	v0.8H7.4V5.9z M21.1,17.3c0,0.8-0.7,1.5-1.5,1.5H4.4c-0.8,0-1.5-0.7-1.5-1.5V9.7c0-0.8,0.7-1.5,1.5-1.5h1.5v2.3
	c0,0.4,0.3,0.8,0.8,0.8s0.8-0.3,0.8-0.8V8.2h9.1v2.3c0,0.4,0.3,0.8,0.8,0.8s0.8-0.3,0.8-0.8V8.2h1.5c0.8,0,1.5,0.7,1.5,1.5V17.3z"/>
</svg>
