<?xml version="1.0" encoding="utf-8"?>
<!-- Generator: Adobe Illustrator 24.1.2, SVG Export Plug-In . SVG Version: 6.00 Build 0)  -->
<svg version="1.1"
	 id="Layer_1" xmlns:cc="http://creativecommons.org/ns#" xmlns:dc="http://purl.org/dc/elements/1.1/" xmlns:rdf="http://www.w3.org/1999/02/22-rdf-syntax-ns#"
	 xmlns="http://www.w3.org/2000/svg" xmlns:xlink="http://www.w3.org/1999/xlink" x="0px" y="0px" viewBox="0 0 100 100"
	 style="enable-background:new 0 0 100 100;" xml:space="preserve">
<style type="text/css">
	.st0{fill:#FFFFFF;}
	.st1{fill:#F29F05;}
</style>
<rect x="4.4" y="63.7" class="st0" width="67.8" height="18.5"/>
<path image-rendering="auto" color-rendering="auto" shape-rendering="auto" class="st1" d="M-23,70.8C-23.1,70.8-23.1,70.8-23,70.8
	C-23.1,70.9-23.1,70.9-23,70.8C-23.1,70.9-23.1,70.9-23,70.8C-23.1,70.9-23.1,70.9-23,70.8c-0.3,0-0.5,0.1-0.7,0.3
	c-0.1,0.1-5.2,4.7-7.2,6.5l-2.4,2.2c-0.3,0.3-0.4,0.8-0.1,1.1c0.3,0.3,0.8,0.4,1.1,0.1l0.3-0.2v7.1c0,0.6,0,1.1,0,1.5
	c0,0.4,0.2,0.9,0.5,1.2c0.3,0.3,0.8,0.5,1.2,0.5c0.4,0,0.9,0,1.5,0h0.8c0.6,0,1.1,0,1.5,0c0.4,0,0.9-0.2,1.2-0.5
	c0.3-0.3,0.5-0.8,0.5-1.2c0-0.4,0-0.9,0-1.5v-1.6c0-0.6,0-1,0-1.3c0-0.1,0-0.2,0-0.2c0,0,0.1,0,0.2,0c0.3,0,0.7,0,1.3,0s1,0,1.3,0
	c0.1,0,0.2,0,0.2,0c0,0,0,0.1,0,0.2c0,0.3,0,0.7,0,1.3v1.6c0,0.6,0,1.1,0,1.5c0,0.4,0.2,0.9,0.5,1.2c0.3,0.3,0.8,0.5,1.2,0.5
	c0.4,0,0.9,0,1.5,0h0.8c0.6,0,1.1,0,1.5,0c0.4,0,0.9-0.2,1.2-0.5c0.3-0.3,0.5-0.8,0.5-1.2c0-0.4,0-0.9,0-1.5v-7.1l0.3,0.2
	c0.3,0.3,0.8,0.3,1.1-0.1c0.3-0.3,0.3-0.8-0.1-1.1l0,0l-2.4-2.2c-2-1.8-7.1-6.3-7.2-6.5c0,0,0,0,0,0C-22.6,71-22.8,70.9-23,70.8
	L-23,70.8z M-23.1,72.8c0.3,0.3,1.9,1.7,3.3,3l3.5,3.1c0.3,0.3,0.5,0.7,0.5,1.2v7.8c0,0.6,0,1,0,1.3c0,0.1,0,0.2,0,0.2
	c0,0-0.1,0-0.2,0c-0.3,0-0.7,0-1.3,0h-0.8c-0.6,0-1,0-1.3,0c-0.1,0-0.2,0-0.2,0c0,0,0-0.1,0-0.2c0-0.3,0-0.7,0-1.3v-1.6
	c0-0.6,0-1.1,0-1.5c0-0.4-0.2-0.9-0.5-1.2c-0.3-0.3-0.8-0.5-1.2-0.5c-0.4,0-0.9,0-1.5,0s-1.1,0-1.5,0c-0.4,0-0.9,0.2-1.2,0.5
	c-0.3,0.3-0.5,0.8-0.5,1.2c0,0.4,0,0.9,0,1.5v1.6c0,0.6,0,1,0,1.3c0,0.1,0,0.2,0,0.2c0,0-0.1,0-0.2,0c-0.3,0-0.7,0-1.3,0h-0.8
	c-0.6,0-1,0-1.3,0c-0.1,0-0.2,0-0.2,0c0,0,0-0.1,0-0.2c0-0.3,0-0.7,0-1.3V80c0-0.5,0.2-0.9,0.5-1.2c1-0.9,1.9-1.8,3.5-3.1
	L-23.1,72.8L-23.1,72.8z"/>
<rect x="4.4" y="17.3" class="st1" width="40.7" height="18.5"/>
<g>
	<path class="st0" d="M14,34c-2.5,0-5.1-0.3-7.3-1.2L7.2,31c1.9,0.8,4.4,1.2,6.8,1.2c3.4,0,6.1-0.6,6.1-2.4c0-1.4-1.8-1.8-5.8-2.2
		c-4.7-0.4-7.5-1.1-7.5-3.8c0-2.7,3.3-3.9,8.2-3.9c2.4,0,4.9,0.3,6.8,1.1l-0.5,1.7c-1.8-0.8-4-1.1-6.3-1.1c-2.8,0-6.1,0.3-6.1,2
		c0,1.3,1.5,1.7,5.5,2c4.7,0.4,7.8,1,7.8,3.8C22.2,32.9,18.4,34,14,34z"/>
	<path class="st0" d="M30.6,33.6l-0.7-3h-3.6l-0.7,3h-1.9L27.1,20h2l3.5,13.6H30.6z M28.1,22.8l-1.4,6.1h2.9L28.1,22.8z"/>
	<path class="st0" d="M42.8,33.9h-0.3l-5.9-8.4v8.2h-1.9V20H35l5.8,8.4v-8.1h1.9V33.9z"/>
</g>
<rect x="4.4" y="39.3" class="st1" width="91.2" height="18.5"/>
<g>
	<path class="st1" d="M8.7,77.5c-0.3,0.1-0.4-0.2-0.5-0.4C8.5,77.1,8.6,77.3,8.7,77.5z M13.6,65.4c0.4,0.1,0.8,0.4,0.9,0.8l0.4,1.1
		c0.1,0.3,0,0.6,0,0.9c0,0.1-0.2,0.1-0.3,0.3c-0.1,0.2-0.2,0.4-0.3,0.6c-0.1,0-0.1-0.2-0.2-0.2c-0.1,0-0.1,0.2-0.2,0.3
		c0,0,0,0-0.1,0c-0.3-0.4-0.5-0.9-0.4-1.4c0.1-0.3,0-0.5-0.1-0.8c-0.1-0.4-0.6-0.8-1-0.7c-0.2,0.1-0.4,0.2-0.6,0.2
		c-0.2,0.1-0.3,0.3-0.4,0.5s-0.2,0.6-0.3,0.7c-0.2,0.2-0.2,0.8,0,1c0.6,0.5,1,1.1,1.4,1.7c0.4,0.5,0.8,0.9,1.2,1.2
		c0.4,0.3,0.7,0.7,1,1.1c0.1,0.2,0.2,0.3,0.4,0.5c0.5,0.5,0.5,1.1,0.6,1.7c0.1,0.4,0.1,0.9,0.1,1.3c0,0.2,0,0.4-0.2,0.5
		c-0.1,0.1-0.1,0.2-0.1,0.3c-0.1,0.5-0.3,1-0.6,1.4c-0.1,0.2-0.3,0.3-0.5,0.4c-0.1,0-0.2,0.1-0.2,0.1c-0.2,0.3-0.5,0.4-0.8,0.6
		c-0.1,0-0.2,0.1-0.2,0.1c-0.2-0.1-0.4,0-0.6,0.1c-0.6,0.3-1.6,0.1-2.4-0.4C10,79.2,8.8,78.1,8.8,78c-0.4-0.6,0.6,0.5,0.2-0.1
		c-0.1-0.1-0.2-0.4-0.2-0.6c0-0.2-0.2-0.4-0.3-0.5c0-0.1-0.1-0.1-0.2-0.2c0.1-0.1,0.3-0.2,0.4,0c0.2,0.2,0.2,0.1,0.3,0.1
		c0.1,0.1,0.1,0.1,0.3,0.2c0.2,0.2,0.3,0.4,0.4,0.5c0.2,0.3,0.4,0.3,0.7,0.5c0.7,0.3,1.4,0.9,2,0.2c0.4-0.4,0.5-0.8,0.5-1.3
		c0-0.5-0.1-1-0.2-1.5c0-0.1-0.1-0.2-0.1-0.3c-0.8-1.1-1.4-1.9-2.3-2.8c-0.5-0.4-1.1-1.1-1.3-1.7c-0.1-0.3-0.3-0.6-0.3-0.9
		c0-0.2,0-0.4,0-0.5c0.2-0.6,0.2-1.1,0.5-1.7c0.3-0.8,0.8-1.3,1.5-1.8c0.2-0.1,0.4-0.2,0.7-0.1c0.4,0.1,0.7-0.1,1.1-0.1
		C12.8,65.4,13.2,65.3,13.6,65.4z M11.5,72.5c0.1,0-0.2-0.4-0.3-0.6c-0.2-0.3-0.4-0.4-0.5-0.5c-0.3-0.2-0.5-0.4-0.8-0.5
		C10.3,71.5,11,72.1,11.5,72.5z"/>
	<path class="st1" d="M19.3,68.3c0.1,0.4,0.2,0.9,0.3,1.3c0.4,0,0.6,0,0.8-0.1c0.1,0,0.9-0.1,0.5,0c0,0.1,0.7-0.1,0.8-0.1
		c0.2,0,0.9,0.2,0.6,0.3c-0.1,0.1,0.3,0.1,0.4,0.2c-0.3,0.3-0.9,0.3-1.3,0.4c-0.1,0-0.4,0-0.6,0c-0.1,0-0.5,0.1-0.7,0.1
		c-0.3,0-0.3,0-0.3,0.3c0,0.7,0.1,1.4,0.2,2.1c0,0.6,0.1,1.2,0.1,1.8c0,0.7,0.1,1.4,0.2,2.1c0,0.4,0.1,0.8,0.1,1.2
		c0,0.3,0.2,0.5,0.5,0.6c0.1,0.1,0.1,0.1,0.2,0l0.4-0.2c0.6-0.3,1-0.7,1.3-0.7c0.2,0,0.1,0.4-0.2,0.6c-0.3,0.2-0.4,0.4-0.6,0.6
		c-0.3,0.2-0.3,0.3-0.6,0.4c-0.1,0-0.2,0.1-0.3,0.1c-0.4,0.3-0.7,0.4-1.3,0.3c-0.1,0-0.2-0.1-0.4,0C19,80.1,19,80,18.9,80
		c-0.1-0.2-0.1-0.3-0.2-0.5c0-0.1-0.1-0.2-0.2-0.1c-0.1,0-0.1,0-0.1-0.1c-0.3-0.4-0.4-0.7-0.5-1.2c-0.1-0.6-0.1-1.1-0.1-1.7
		c0-1,0-2,0-2.9c0.1-0.8,0.1-1.6,0.1-2.4c0-0.1,0-0.3,0-0.4c-0.3,0.1-1,0.1-1,0c0.2,0,0.6-0.1,0.8-0.2c-0.3-0.1-0.7,0-1,0
		c-0.4,0-0.5,0-0.5-0.5c0.4,0,1.1-0.2,1.5-0.2c0.1,0,0.1,0,0.1-0.2c0-0.2,0-0.4,0-0.7c0-0.3,0-0.6,0.1-0.9c0.1-0.1,0.1,0.4,0.2,0.6
		c0.1-0.3,0.1-0.6,0.1-0.9c0-0.3,0-0.4,0.3-0.6C19,67.4,19.2,67.9,19.3,68.3z M19.6,78.7c0,0.1,0.1,0.1,0.1,0.1
		c0.1,0.1,0.5,0.3,0.3,0c-0.2-0.2-0.4-0.7-0.5-0.7C19.5,78.1,19.6,78.6,19.6,78.7z"/>
	<path class="st1" d="M24.5,72.1c0,0,0,0.1,0,0.1c0,0,0,0,0,0.1c0.3-0.2,0.5-0.4,0.8-0.6c0.5-0.4,0.9-0.5,1.5-0.3
		c0.3,0.1,0.6,0.3,0.9,0.6c-0.1,0.2-0.3,0.2-0.4,0.1C27.1,72,27,72,27,72.1c-0.1,0.2-0.4,0.1-0.5,0.3l-0.1,0.1
		c-0.6,0.2-1,0.5-1.2,1.1c-0.1,0.2-0.1,0.5-0.2,0.7c-0.1,0.1-0.2,0.3-0.1,0.5c0,0.4,0,0.7,0,1.1c0,0.8,0.1,1.6,0.1,2.3
		c0,0.3,0,0.7,0,1c0,0.2-0.3,0.8-0.4,0.9c-0.3-0.3-0.5-0.3-0.8,0c-0.1,0.1-0.2,0-0.3,0c-0.1,0.1,0,0.1,0,0.2h-0.1
		c-0.4-0.4-0.6-0.9-0.6-1.4c0-0.8,0-1.7-0.1-2.5c0-0.4,0-0.7,0-1.1c0.1-0.5,0.1-1,0.1-1.5c0-0.2,0-0.4,0-0.7c0-0.4,0-0.8-0.1-1.1
		c0-0.1,0-0.2,0.1-0.2c0.1,0,0.1,0.1,0.2,0.1c0.2-0.1,0.1-0.3,0.1-0.4c0.2-0.1,0.4-0.1,0.5-0.3c0-0.1,0.1,0,0.2,0
		C24.1,71.4,24.5,71.5,24.5,72.1z M27.6,72.5C27.5,72.5,27.5,72.5,27.6,72.5c-0.4-0.1-0.6-0.1-0.9,0.1c-0.1,0.1-0.3,0.2-0.5,0.2
		c0.1-0.2,0.2-0.2,0.3-0.3l0.1-0.1c0.1,0,0.2-0.1,0.3-0.2C27.2,72.1,27.4,72.2,27.6,72.5z"/>
	<path class="st1" d="M37.9,71.2c0.1,0.1,0.2,0.1,0.3,0.2c0.5,0.1,0.6,0.4,0.8,0.8c0.3,0.6,0.2,0.4,0.1,1c0,0.2-0.1,0.4-0.2,0.7
		c-0.1,0.3-0.5,0.4-0.7,0.6c-0.2,0.1-0.5,0.4-0.6,0.5c-0.5,0.2-0.5,0.4-1,0.7c-0.2,0.1-0.4,0.2-0.7,0.5c0.2,0.3,0.2,0.5,0.3,0.8
		c0.1,0.4,0.4,0.9,0.7,1.2c0.4,0.4,1,0.4,1.6,0.5c0.2,0,0.3-0.1,0.4-0.1c0.3-0.2,0.5-0.4,0.9-0.6c0.2-0.1,0.4-0.3,0.6-0.4
		c0.2-0.2,0.5-0.3,0.8-0.3c0.1,0,0.1,0,0.1,0.1c0,0.1,0,0.1-0.1,0.2c-0.1,0.1-0.5,0.4-0.6,0.5c-0.3,0.2-0.6,0.5-0.8,0.7
		c-0.3,0.2-0.6,0.5-0.7,0.6c-0.2,0.2-0.7,0.3-0.9,0.5c-0.1,0.1-0.4,0.1-0.6,0.1c-0.2,0-0.4,0-0.6,0c-0.6,0-1.2-0.1-1.6-0.7
		c0-0.1-0.1-0.1-0.2-0.1c-0.6-0.3-0.8-0.8-0.9-1.4l0-0.1c0,0,0-0.1,0-0.1c-0.1,0-0.2,0.1-0.2,0.2c-0.4,0.3-0.7,0.6-0.9,0.9
		c-0.1,0.2-0.4,0.3-0.6,0.4c-0.2,0.1-0.3,0.4-0.5,0.3c-0.1,0-0.2,0.1-0.2,0.1c-0.2,0.4-0.9,0.5-1.2,0.7c-0.6,0.2-0.9,0-1.5-0.2
		c-0.1,0-0.2-0.1-0.2-0.1c-0.6-0.5-0.9-1.1-1.1-1.9c0-0.1-0.1-0.1-0.1-0.2c0-0.1-0.1-0.4-0.1-0.6c0.1-0.7,0-0.6,0-0.9
		c0-0.5,0-1.2,0.1-1.8c0.1-0.7,0.3-1.4,0.8-2c0.2-0.3,0.3-0.3,0.7-0.1l0.1-0.2c0.1-0.1,0.2-0.2,0.3-0.1c0.2,0.1,0.3,0,0.5,0
		c0.6-0.2,1.1-0.3,1.6,0.1c0.2,0.1,0.4,0.1,0.5,0.2c0.1,0,0.3,0.1,0.4,0.2c0.1,0.1,0.2,0.2,0.1,0.4c-0.1,0.1,0,0.3,0,0.4
		c0.2,0.5,0,1-0.2,1.5c-0.1,0.3-0.3,0.6-0.6,0.8c-0.1,0.1-0.2,0.2-0.3,0.3c-0.1,0.1-0.3,0.2-0.6,0.4c-0.2,0.1-0.9,0.5-1.3,0.8
		C30,76.5,30,76.6,30,76.7c0.2,0.4,0.2,0.6,0.4,0.8c0,0.1,0.1,0.1,0.1,0.2c0.3,0.2,0.4,0.4,0.8,0.5c0.2,0.1,0.4,0,0.6-0.1
		c0.6-0.2,0.8-0.5,1.3-0.8c0.5-0.4,0.6-0.7,1-1c0.2-0.1,0.1-0.1,0.2-0.3c0.1-0.7,0-1.4,0.1-2c0.1-0.4,0.2-0.7,0.3-1
		c0.1-0.2,0.1-0.5,0.2-0.7c0.3-0.5,0.6-1,1.1-1.2c0.3-0.1,1.9-0.3,0.9,0c-0.1,0,0,0.1,0,0.1c0.2-0.1,0.3,0.1,0.5-0.1
		C37.6,71,37.8,71,37.9,71.2z M30.3,72.2c-0.3,0.2-0.4,0.5-0.3,0.8c0,0.1,0,0.2-0.1,0.3c-0.2,0.7-0.2,1.8,0,2.5
		c0.4-0.4,0.8-0.5,1.1-0.9c0,0,0.1-0.1,0.1-0.1c0.1-0.1,0.1-0.1,0.1-0.2c0.2-0.3,0.1-0.9,0.3-1.2c0.1-0.1,0.1-0.3,0.1-0.4
		c0-0.4-0.2-0.7-0.4-1.1c0,0-0.1-0.1-0.1-0.1C30.8,72,30.5,71.9,30.3,72.2z M32,73.2c0.2-0.2,0.1-0.3,0-0.5V73.2z M36.8,71.8
		c0,0.1-0.1,0.2-0.1,0.3c-0.1,0.3-0.4,0.6-0.4,0.9l-0.3,1.4c0,0.3-0.1,0.5,0,0.8c0.5-0.4,0.9-0.8,1.1-1.1c0.3-0.4,0.3-0.6,0.4-0.8
		c0.1-0.2,0.1-0.3,0.1-0.5c0.1-0.4,0-0.7-0.1-1c-0.1-0.2-0.1-0.3-0.1-0.3C37.1,71.6,36.9,71.6,36.8,71.8z"/>
	<path class="st1" d="M42.3,68.3c0.1,0.4,0.2,0.9,0.3,1.3c0.4,0,0.6,0,0.8-0.1c0.1,0,0.9-0.1,0.5,0c0,0.1,0.7-0.1,0.8-0.1
		c0.2,0,0.9,0.2,0.6,0.3c-0.1,0.1,0.3,0.1,0.4,0.2c-0.3,0.3-0.9,0.3-1.3,0.4c-0.1,0-0.4,0-0.6,0c-0.1,0-0.5,0.1-0.7,0.1
		c-0.3,0-0.3,0-0.3,0.3c0,0.7,0.1,1.4,0.2,2.1c0,0.6,0.1,1.2,0.1,1.8c0,0.7,0.1,1.4,0.2,2.1c0,0.4,0.1,0.8,0.1,1.2
		c0,0.3,0.2,0.5,0.5,0.6c0.1,0.1,0.1,0.1,0.2,0l0.4-0.2c0.6-0.3,1-0.7,1.3-0.7c0.2,0,0.1,0.4-0.2,0.6c-0.3,0.2-0.4,0.4-0.6,0.6
		c-0.3,0.2-0.3,0.3-0.6,0.4c-0.1,0-0.2,0.1-0.3,0.1c-0.4,0.3-0.7,0.4-1.3,0.3c-0.1,0-0.2-0.1-0.4,0C42,80.1,42,80,41.9,80
		c-0.1-0.2-0.1-0.3-0.2-0.5c0-0.1-0.1-0.2-0.2-0.1c-0.1,0-0.1,0-0.1-0.1c-0.3-0.4-0.4-0.7-0.5-1.2c-0.1-0.6-0.1-1.1-0.1-1.7
		c0-1,0-2,0-2.9c0.1-0.8,0.1-1.6,0.1-2.4c0-0.1,0-0.3,0-0.4c-0.3,0.1-1,0.1-1,0c0.2,0,0.6-0.1,0.8-0.2c-0.3-0.1-0.7,0-1,0
		c-0.4,0-0.5,0-0.5-0.5c0.4,0,1.1-0.2,1.5-0.2c0.1,0,0.1,0,0.1-0.2c0-0.2,0-0.4,0-0.7c0-0.3,0-0.6,0.1-0.9c0.1-0.1,0.1,0.4,0.2,0.6
		c0.1-0.3,0.1-0.6,0.1-0.9c0-0.3,0-0.4,0.3-0.6C42,67.4,42.1,67.9,42.3,68.3z M42.6,78.7c0,0.1,0.1,0.1,0.1,0.1
		c0.1,0.1,0.5,0.3,0.3,0c-0.2-0.2-0.4-0.7-0.5-0.7C42.5,78.1,42.6,78.6,42.6,78.7z"/>
</g>
<g>
	<path class="st1" d="M53.5,65.4c0.1,0,0.3,0.5,0.3,0.7c0-0.5,0.1-0.9,0.4-0.1c0.1,0.4,0.3,0.7,0.4,1.1c0.1,0.4,0.3,0.9,0.3,1.3
		c0,0.3,0.1,0.2,0.2,0.5c0.3,0.5,0.3,1.1,0.4,1.6c0.2,0.9,0.6,1.7,0.9,2.6c0.3,0.6,0.4,1.3,0.5,2c0,0.2,0,0.4,0,0.6
		c0.2,0.7,0.4,1.5,0.7,2.2c0.2,0.4,0.3,0.9,0.3,1.4c0,0.2,0,0.5-0.4,0.5c0,0,0,0.2-0.2,0.2c-0.1-0.1-0.2-0.1-0.3-0.3
		c0-0.1-0.2,0-0.2-0.1c-0.1-0.2-0.4-0.3-0.4-0.1c-0.1,0.4-0.5,0.1-0.7,0.2c-0.2,0.1-0.3,0-0.3-0.2c-0.2-0.7-0.4-1.3-0.6-1.9
		c-0.1-0.5-0.4-1-0.5-1.6c0-0.2-0.2-0.3-0.4-0.3c-0.8,0-1.4,0-2.2,0.1c-0.2,0-0.5-0.1-0.6,0.1c-0.1,0.1-0.1,0.3-0.2,0.5
		c-0.1,0.4-0.2,0.7-0.2,1.1l-0.2,1.4c0,0.2,0,0.3-0.1,0.5c0,0.2-0.1,0.3-0.4,0.2c-0.1,0-0.2-0.5-0.3-0.1c0,0.2-0.2-0.3-0.2-0.5
		c0.1-0.9,0.2-1.7,0.5-2.6l0.1-0.3c0-0.3,0-0.3-0.2-0.3c-0.1,0-0.3-0.1-0.4-0.2c0.1-0.2,0.3-0.1,0.4-0.2c0.5-0.1,0.4,0,0.5-0.5
		c0.1-0.7,0.4-1.5,0.4-2.2c0.1-1,0.3-1.8,0.5-2.7c0.2-0.7,0.2-1,0.3-1.7c0.1-0.6,0.2-1.2,0.3-1.8c0-0.1,0-0.3,0-0.4
		c0-0.1-0.1-0.3,0.1-0.4s0.4-0.3,0.6-0.2C53,65.5,53.3,65.4,53.5,65.4z M52.5,68.7c0,0.4-0.1,0.8-0.2,1.2c-0.1,0.5-0.1,1-0.3,1.5
		c-0.2,0.5-0.3,1-0.3,1.5c-0.1,0.7-0.2,1.3-0.3,2c0.7,0,1.4-0.1,2-0.1c0.1,0,0.2,0,0.4-0.1c0.3-0.1,0.3-0.1,0.2-0.4
		c-0.2-0.5-0.2-1-0.4-1.4c-0.1-0.4-0.1-0.8-0.3-1.2c-0.2-0.5-0.3-1-0.3-1.5c-0.1-0.6-0.2-1.1-0.4-1.7C52.5,68.6,52.4,68.7,52.5,68.7
		z M55.6,71.9c0-0.1-0.1-0.9-0.2-0.9C55.2,71.1,55.5,71.7,55.6,71.9z"/>
	<path class="st1" d="M60.8,72.1c0,0,0,0.1,0,0.1c0,0,0,0,0,0.1c0.3-0.2,0.5-0.4,0.8-0.6c0.5-0.4,0.9-0.5,1.5-0.3
		c0.3,0.1,0.6,0.3,0.9,0.6c-0.1,0.2-0.3,0.2-0.4,0.1c-0.1-0.1-0.2-0.1-0.3,0c-0.1,0.2-0.4,0.1-0.5,0.3l-0.1,0.1
		c-0.6,0.2-1,0.5-1.2,1.1c-0.1,0.2-0.1,0.5-0.2,0.7c-0.1,0.1-0.2,0.3-0.1,0.5c0,0.4,0,0.7,0,1.1c0,0.8,0.1,1.6,0.1,2.3
		c0,0.3,0,0.7,0,1c0,0.2-0.3,0.8-0.4,0.9c-0.3-0.3-0.5-0.3-0.8,0c-0.1,0.1-0.2,0-0.3,0c-0.1,0.1,0,0.1,0,0.2h-0.1
		c-0.4-0.4-0.6-0.9-0.6-1.4c0-0.8,0-1.7-0.1-2.5c0-0.4,0-0.7,0-1.1c0.1-0.5,0.1-1,0.1-1.5c0-0.2,0-0.4,0-0.7c0-0.4,0-0.8-0.1-1.1
		c0-0.1,0-0.2,0.1-0.2c0.1,0,0.1,0.1,0.2,0.1c0.2-0.1,0.1-0.3,0.1-0.4c0.2-0.1,0.4-0.1,0.5-0.3c0-0.1,0.1,0,0.2,0
		C60.3,71.4,60.7,71.5,60.8,72.1z M63.8,72.5C63.8,72.5,63.8,72.5,63.8,72.5c-0.4-0.1-0.6-0.1-0.9,0.1c-0.1,0.1-0.3,0.2-0.5,0.2
		c0.1-0.2,0.2-0.2,0.3-0.3l0.1-0.1c0.1,0,0.2-0.1,0.3-0.2C63.5,72.1,63.6,72.2,63.8,72.5z"/>
	<path class="st1" d="M66.3,68.3c0.1,0.4,0.2,0.9,0.3,1.3c0.4,0,0.6,0,0.8-0.1c0.1,0,0.9-0.1,0.5,0c0,0.1,0.7-0.1,0.8-0.1
		c0.2,0,0.9,0.2,0.6,0.3c-0.1,0.1,0.3,0.1,0.4,0.2c-0.3,0.3-0.9,0.3-1.3,0.4c-0.1,0-0.4,0-0.6,0c-0.1,0-0.5,0.1-0.7,0.1
		c-0.3,0-0.3,0-0.3,0.3c0,0.7,0.1,1.4,0.2,2.1c0,0.6,0.1,1.2,0.1,1.8c0,0.7,0.1,1.4,0.2,2.1c0,0.4,0.1,0.8,0.1,1.2
		c0,0.3,0.2,0.5,0.5,0.6c0.1,0.1,0.1,0.1,0.2,0l0.4-0.2c0.6-0.3,1-0.7,1.3-0.7c0.2,0,0.1,0.4-0.2,0.6c-0.3,0.2-0.4,0.4-0.6,0.6
		c-0.3,0.2-0.3,0.3-0.6,0.4c-0.1,0-0.2,0.1-0.3,0.1c-0.4,0.3-0.7,0.4-1.3,0.3c-0.1,0-0.2-0.1-0.4,0C66,80.1,66,80,65.9,80
		c-0.1-0.2-0.1-0.3-0.2-0.5c0-0.1-0.1-0.2-0.2-0.1c-0.1,0-0.1,0-0.1-0.1c-0.3-0.4-0.4-0.7-0.5-1.2c-0.1-0.6-0.1-1.1-0.1-1.7
		c0-1,0-2,0-2.9c0.1-0.8,0.1-1.6,0.1-2.4c0-0.1,0-0.3,0-0.4c-0.3,0.1-1,0.1-1,0c0.2,0,0.6-0.1,0.8-0.2c-0.3-0.1-0.7,0-1,0
		c-0.4,0-0.5,0-0.5-0.5c0.4,0,1.1-0.2,1.5-0.2c0.1,0,0.1,0,0.1-0.2c0-0.2,0-0.4,0-0.7c0-0.3,0-0.6,0.1-0.9c0.1-0.1,0.1,0.4,0.2,0.6
		c0.1-0.3,0.1-0.6,0.1-0.9c0-0.3,0-0.4,0.3-0.6C66,67.4,66.1,67.9,66.3,68.3z M66.6,78.7c0,0.1,0.1,0.1,0.1,0.1
		c0.1,0.1,0.5,0.3,0.3,0c-0.2-0.2-0.4-0.7-0.5-0.7C66.5,78.1,66.6,78.6,66.6,78.7z"/>
</g>
<g>
	<path class="st0" d="M10.6,49.1v6.3h-2V42h14.5v1.8H10.6v3.5h12.5v1.8H10.6z"/>
	<path class="st0" d="M31.7,55.4l-3-5.7h-1v5.7h-1.9V42h3.7c2.4,0,4,1.4,4,3.7c0,1.9-1.3,3.3-3,3.6l3.3,6H31.7z M29.3,43.7h-1.6v4.4
		h1c1.7,0,3-0.6,3-2.3C31.7,44.4,30.7,43.7,29.3,43.7z"/>
	<path class="st0" d="M41.7,55.4l-0.7-3h-3.6l-0.7,3h-1.9l3.5-13.6h2l3.5,13.6H41.7z M39.2,44.6l-1.4,6.1h2.9L39.2,44.6z"/>
	<path class="st0" d="M53.9,55.6h-0.3l-5.9-8.4v8.2h-1.9V41.8h0.3l5.8,8.4V42h1.9V55.6z"/>
	<path class="st0" d="M62,55.5c-4,0-5.7-3.4-5.7-7c0-3.8,2-6.6,5.9-6.6c0.3,0,0.5,0,1,0.1l-0.1,1.7c-0.2,0-0.5,0-0.6,0
		c-3.1,0-4.2,2.3-4.2,4.8c0,2.5,1.1,5.2,4,5.2c0.2,0,0.4,0,0.6,0l0.1,1.8C62.8,55.5,62.4,55.5,62,55.5z"/>
	<path class="st0" d="M65.4,55.4V42h1.9v13.4H65.4z"/>
	<path class="st0" d="M71,55.5c-0.4,0-0.9,0-1.4-0.1l0.1-1.8c0.5,0.1,1,0.1,1.3,0.1c2.1,0,3.5-0.8,3.5-2c0-1-0.7-1.6-2.3-2.7
		c-1.3-0.9-2.7-2-2.7-3.7c0-1.9,1.6-3.5,4.9-3.5c0.5,0,1,0,1.5,0.1L76,43.8c-0.5-0.1-1-0.1-1.5-0.1c-1.8,0-3,0.5-3,1.5
		c0,1,0.9,1.6,2.2,2.4c1.5,1,2.8,2.2,2.8,4C76.6,54,74.4,55.5,71,55.5z"/>
	<path class="st0" d="M83.4,55.5c-4,0-5.7-3.4-5.7-7c0-3.8,2-6.6,5.9-6.6c0.3,0,0.5,0,1,0.1l-0.1,1.7c-0.2,0-0.5,0-0.6,0
		c-3.1,0-4.2,2.3-4.2,4.8c0,2.5,1.1,5.2,4,5.2c0.2,0,0.4,0,0.6,0l0.1,1.8C84.1,55.5,83.8,55.5,83.4,55.5z"/>
	<path class="st0" d="M89.7,55.7c-3.4,0-4.2-4-4.2-7c0-3,0.9-7,4.2-7c3.4,0,4.2,4,4.2,7C93.9,51.7,93,55.7,89.7,55.7z M89.7,43.4
		c-2,0-2.3,3.1-2.3,5.3c0,2.3,0.4,5.3,2.3,5.3c2,0,2.3-3.1,2.3-5.3C92,46.3,91.7,43.4,89.7,43.4z"/>
</g>
</svg>
