<?xml version="1.0" encoding="utf-8"?>
<!-- Generator: Adobe Illustrator 24.1.2, SVG Export Plug-In . SVG Version: 6.00 Build 0)  -->
<svg version="1.1" id="Layer_1" xmlns="http://www.w3.org/2000/svg" xmlns:xlink="http://www.w3.org/1999/xlink" x="0px" y="0px"
	 viewBox="0 0 24 24" style="enable-background:new 0 0 24 24;" xml:space="preserve">
<style type="text/css">
	.st0{fill:#F29F05;}
</style>
<path class="st0" d="M1.1,9.5c1.8-0.7,3.3-1.7,5.1-2.3c1.2-0.4,2.2-1,3.3-1.6c0.3-0.2,0.6-0.4,1-0.1c0.4,0.3,0.6,0.6,0.5,1.1
	c-0.1,0.3-0.1,0.7-0.2,1c-0.1,0.4,0,0.5,0.4,0.5c3-0.6,6-0.2,9-0.7c1.6-0.2,2.8,0.8,2.8,2.3c0,2,0.2,4,0,6c-0.1,0.8-0.4,1.5-0.7,2.2
	c-0.2,0.5-0.7,0.8-1.3,0.8c-1.3,0-2.6-0.1-3.9,0c-0.1,0-0.2,0-0.3,0c-0.4-0.1-0.6-0.4-0.6-0.8c0-0.4,0.2-0.7,0.7-0.7
	c1.3,0.1,2.4-0.4,3.6-0.7c0.5-0.1,0.7-0.3,0.6-0.8c0-1.1,0.1-2.2,0.3-3.3c0.2-0.8,0.1-1.7,0.1-2.5c0-0.7-0.2-0.8-0.9-0.8
	c-0.9,0.1-1.7,0.1-2.6,0.3c-1.2,0.2-2.4,0.2-3.6,0.3c-0.9,0-1.8,0.2-2.7,0.2c-0.6,0-0.7,0.2-0.6,0.8c0,0.1,0.1,0.2,0.1,0.4
	c0.1,0.9-0.3,1.4-1.3,1.2c-1-0.2-1.8-0.7-2.7-0.9c-1.6-0.4-3.2-1.1-4.9-1.2C1.8,10.2,1.5,9.9,1.1,9.5z"/>
</svg>
