<?xml version="1.0" encoding="utf-8"?>
<!-- Generator: Adobe Illustrator 24.1.2, SVG Export Plug-In . SVG Version: 6.00 Build 0)  -->
<svg version="1.1" id="Layer_1" xmlns="http://www.w3.org/2000/svg" xmlns:xlink="http://www.w3.org/1999/xlink" x="0px" y="0px"
	 viewBox="0 0 24 24" style="enable-background:new 0 0 24 24;" xml:space="preserve">
<style type="text/css">
	.st0{fill:#F29F05;}
</style>
<g>
	<path class="st0" d="M12.1,13.9c1.3,0,2.4-1.1,2.4-2.4s-1.1-2.4-2.4-2.4s-2.4,1.1-2.4,2.4S10.8,13.9,12.1,13.9L12.1,13.9z"/>
	<path class="st0" d="M22.3,4.3l-17.1-2C4.8,2.3,4.4,2.6,4.3,3L3.9,6.5H1.8C1.4,6.5,1,6.8,1,7.3v13.7c0,0.4,0.3,0.8,0.8,0.8h17.3
		c0.4,0,0.8-0.3,0.8-0.8v-1.6l0.7,0.1h0.1c0.4,0,0.7-0.3,0.8-0.7L23,5.1C23,4.7,22.7,4.3,22.3,4.3z M18.3,13l-6.1,3.6l-4.5-3.9
		c-0.3-0.2-0.7-0.3-1-0.1l-4.2,3.1V8h15.7V13z M20,17.8h-0.2V7.3c0-0.4-0.3-0.8-0.8-0.8H5.5L5.7,4l15.6,1.8L20,17.8z"/>
</g>
</svg>
