<?xml version="1.0" encoding="utf-8"?>
<!-- Generator: Adobe Illustrator 24.1.2, SVG Export Plug-In . SVG Version: 6.00 Build 0)  -->
<svg version="1.1" id="Layer_1" xmlns="http://www.w3.org/2000/svg" xmlns:xlink="http://www.w3.org/1999/xlink" x="0px" y="0px"
	 viewBox="0 0 24 24" style="enable-background:new 0 0 24 24;" xml:space="preserve">
<style type="text/css">
	.st0{fill:#F29F05;}
</style>
<g>
	<path class="st0" d="M12.2,13.8c1.3,0,2.4-1.1,2.4-2.4S13.5,9,12.2,9s-2.4,1.1-2.4,2.4l0,0C9.8,12.7,10.9,13.8,12.2,13.8z
		 M12.2,10.6c0.5,0,0.9,0.4,0.9,0.9s-0.4,0.9-0.9,0.9c-0.5,0-0.9-0.4-0.9-0.9S11.7,10.6,12.2,10.6L12.2,10.6z"/>
	<path class="st0" d="M20.6,4.1L7,2.6C5.7,2.4,4.5,3.4,4.3,4.7L4.1,6.5H4.1c-1.5,0-2.8,1.2-2.8,2.8v9.4c0,1.5,1.2,2.8,2.8,2.8H17
		c1.4,0,2.6-1.1,2.8-2.5c1-0.3,1.7-1.1,1.8-2.1l1.1-10.1C22.8,5.5,21.9,4.3,20.6,4.1z M4.1,8H17c0.7,0,1.3,0.6,1.3,1.3v3.6l-6,3.5
		l-4.4-3.8c-0.3-0.3-0.7-0.3-1-0.1l-4.1,3V9.3C2.8,8.6,3.4,8,4.1,8z M17,19.9H4.1c-0.7,0-1.3-0.6-1.3-1.3v-1.2l4.5-3.3l4.4,3.8
		c0.3,0.2,0.6,0.3,0.9,0.1l5.7-3.3v4C18.3,19.3,17.7,19.9,17,19.9z M21.2,6.6l-1.1,10.1c0,0.2-0.1,0.4-0.3,0.5V9.3
		c0-1.5-1.2-2.8-2.8-2.8H5.7l0.2-1.6c0.1-0.5,0.5-0.8,1-0.8l13.6,1.5C20.9,5.7,21.2,6.2,21.2,6.6z"/>
</g>
</svg>
