<?xml version="1.0" encoding="utf-8"?>
<!-- Generator: Adobe Illustrator 24.1.2, SVG Export Plug-In . SVG Version: 6.00 Build 0)  -->
<svg version="1.1" id="Layer_1" xmlns="http://www.w3.org/2000/svg" xmlns:xlink="http://www.w3.org/1999/xlink" x="0px" y="0px"
	 viewBox="0 0 24 24" style="enable-background:new 0 0 24 24;" xml:space="preserve">
<style type="text/css">
	.st0{fill:#F29F05;}
</style>
<path class="st0" d="M22.7,20.9L19,16.5c-0.2-0.2-0.5-0.4-0.7-0.4h-0.9c-0.5,0-1,0.4-1,1s0.4,1,1,1h0.4l2.1,2.5h-16l2-2.6h0.4
	c0.5,0,1-0.4,1-1s-0.4-1-1-1H5.4c-0.3,0-0.6,0.1-0.7,0.4L1.1,21c-0.2,0.3-0.3,0.7-0.1,1c0.2,0.3,0.5,0.5,0.9,0.5h20.1
	c0.4,0,0.7-0.2,0.9-0.6C22.9,21.6,22.9,21.2,22.7,20.9L22.7,20.9z"/>
<path class="st0" d="M11.9,6.3c-0.8,0-1.5,0.7-1.5,1.5s0.7,1.5,1.5,1.5l0,0c0.4,0,0.8-0.1,1.1-0.4s0.4-0.7,0.4-1.1
	C13.4,7,12.7,6.3,11.9,6.3z"/>
<path class="st0" d="M11.4,18.9L11.4,18.9c0.3,0.1,0.6,0.1,0.8,0l0.1,0c0.1,0,0.3-0.1,0.4-0.3c0.6-0.7,5.8-7.2,5.8-10.8
	c0-4.6-4-6.3-6.6-6.3c-2.6,0-6.6,1.7-6.6,6.3c0,3.6,5.2,10,5.8,10.8C11.1,18.7,11.3,18.8,11.4,18.9z M9.5,4c1.2-0.6,2.3-0.6,2.4-0.6
	c0.1,0,1.3,0,2.4,0.6c1.1,0.5,2.3,1.6,2.3,3.9c0,2.4-3.7,7.4-4.4,8.4l-0.3,0.4l-0.3-0.4c-0.7-1-4.4-6-4.4-8.4C7.2,5.5,8.4,4.5,9.5,4
	z"/>
</svg>
