<?xml version="1.0" encoding="utf-8"?>
<!-- Generator: Adobe Illustrator 24.1.2, SVG Export Plug-In . SVG Version: 6.00 Build 0)  -->
<svg version="1.1" id="Layer_1" xmlns="http://www.w3.org/2000/svg" xmlns:xlink="http://www.w3.org/1999/xlink" x="0px" y="0px"
	 viewBox="0 0 24 24" style="enable-background:new 0 0 24 24;" xml:space="preserve">
<style type="text/css">
	.st0{fill:#FFFFFF;}
	.st1{fill:#F29F05;}
</style>
<polygon class="st0" points="5.3,4.6 7.7,2.5 11.5,1.6 16.2,2.5 19.3,6.1 20.5,9.2 19.7,13.4 18.8,15.7 16.2,18 14.3,18.8 12,22.4 
	9.9,18.7 7.4,17.7 5.7,16.2 4.3,14 3.3,10.2 3.3,7.8 "/>
<path class="st1" d="M12,0.8c-5.2,0-9.4,4.2-9.4,9.4c0,4,2.6,7.7,6.4,9l2.3,3.9c0.2,0.4,0.7,0.6,1.1,0.3c0.2-0.1,0.3-0.2,0.3-0.3
	l2.3-3.9c5-1.7,7.6-7.1,5.9-12C19.6,3.4,16,0.8,12,0.8z M14.5,17.6c-0.2,0.1-0.4,0.1-0.7,0.2l-1.1,1.9L12,20.8l-0.7-1.1l-1.1-1.9
	c-0.2,0-0.5-0.1-0.7-0.2c-4-1.4-6.2-5.8-4.8-9.8s5.8-6.2,9.8-4.8s6.2,5.8,4.8,9.8C18.5,15,16.8,16.8,14.5,17.6L14.5,17.6z"/>
<path class="st1" d="M16.7,6.8c-0.2-0.4-0.6-0.5-0.9-0.5c-0.1,0-0.2,0-0.3,0c-0.1,0-0.2,0-0.3,0.1c-0.5,0.1-1.1,0.5-1.5,0.8
	c-0.4,0.3-0.8,0.7-1.1,1.1c-0.2-0.5-0.4-1-0.8-1.5C11.4,6,10.4,5.1,9.4,5.3C8.8,5.4,8.6,5.9,8.5,6.4C8.4,7,8.4,7.6,8.4,8.2
	c0.1,1.3,0.4,2.5,0.8,3.7c0.5,1.4,1.1,2.7,1.7,4c0.2,0.4,0.7,0.2,0.8-0.2c0.1,0,0.2,0,0.3,0c1.9-1.4,3.4-3.3,4.4-5.4
	C16.8,9.3,17.4,7.9,16.7,6.8z M13.8,9c0.3-0.4,0.6-0.8,0.9-1.2c0.1-0.1,0.1-0.2,0.2-0.2c-0.6,1.4-1.5,2.6-2.1,3.9c0-0.2,0-0.3,0-0.4
	c0-0.1,0-0.2-0.1-0.3C12.9,10.2,13.3,9.6,13.8,9z M10.3,7.2C10.3,7.3,10.3,7.3,10.3,7.2c0.1,0.1,0.2,0.2,0.2,0.3
	c0,0.1,0.1,0.1,0.1,0.2c0,0.1-0.1,0.2-0.1,0.2c0,0.4,0,0.8,0.1,1.2c0,0,0-0.1,0-0.1c-0.1-0.5-0.2-1.1-0.3-1.6
	C10.3,7.4,10.3,7.3,10.3,7.2z M12.8,14L12.8,14L12.8,14L12.8,14z M13.3,12.5c0.4-0.7,0.8-1.3,1.3-1.9C14.2,11.3,13.8,11.9,13.3,12.5
	z M16.2,8c-0.1,0-0.3,0-0.4,0.1c-0.1,0.1-0.3,0.3-0.4,0.4c0.2-0.4,0.4-0.9,0.5-1.4c0.1,0,0.1,0.1,0.2,0.2C16.2,7.6,16.2,7.8,16.2,8z
	 M11.9,8.3c-0.2-0.4-0.4-0.8-0.7-1.2C11.5,7.5,11.7,7.9,11.9,8.3z M9.3,6.5c0-0.2,0-0.4,0.2-0.4c0.2,0,0.3,0,0.5,0.1
	c-0.1,0-0.3,0.1-0.4,0.2C9.3,6.7,9.4,7.5,9.5,7.9c0.2,1.3,0.5,2.7,0.8,4c0.1,0.4,0.1,0.8,0.2,1.1c-0.5-1.1-0.9-2.3-1.1-3.5
	C9.2,8.6,9.2,7.5,9.3,6.5z"/>
</svg>
