<?xml version="1.0" encoding="utf-8"?>
<!-- Generator: Adobe Illustrator 24.1.2, SVG Export Plug-In . SVG Version: 6.00 Build 0)  -->
<svg version="1.1" id="Layer_1" xmlns="http://www.w3.org/2000/svg" xmlns:xlink="http://www.w3.org/1999/xlink" x="0px" y="0px"
	 viewBox="0 0 24 24" style="enable-background:new 0 0 24 24;" xml:space="preserve">
<style type="text/css">
	.st0{fill:#F29F05;}
</style>
<path class="st0" d="M12.1,1C6,1,1.1,5.9,1.1,12s4.9,11,11,11c0.3,0,0.6,0,0.9,0c1.8-0.1,3.5-0.7,5-1.7c0.3-0.2,0.5-0.3,0.7-0.5l0,0
	c2.8-2.1,4.4-5.4,4.4-8.8C23.1,5.9,18.2,1,12.1,1z M17.1,19.5L17.1,19.5c-0.4,0.2-0.8,0.4-1.1,0.6l0,0c-2.4,1.1-5.2,1.1-7.7,0l0,0
	c-0.4-0.2-0.7-0.4-1.1-0.6l0,0V18c0-1.1,0.9-2,2-2l0,0h6c1.1,0,2,0.9,2,2L17.1,19.5z M19.1,17.7c-0.2-2.1-1.9-3.7-4-3.7h-6
	c-2.1,0-3.8,1.6-4,3.7c-1.3-1.6-2-3.6-2-5.7c0-5,4-9,9-9s9,4,9,9C21.1,14.1,20.4,16.1,19.1,17.7z"/>
<path class="st0" d="M12.1,5c-2.2,0-4,1.8-4,4s1.8,4,4,4s4-1.8,4-4S14.3,5,12.1,5z M12.1,11c-1.1,0-2-0.9-2-2s0.9-2,2-2s2,0.9,2,2
	S13.2,11,12.1,11z"/>
</svg>
